M48
;Layer_Color=9474304
;FILE_FORMAT=4:2
METRIC,TZ
;TYPE=PLATED
T01F00S00C0.20
T02F00S00C0.30
T03F00S00C1.00
T04F00S00C3.18
%
T01
X14848Y202
X14938
X15028
X15118
X15208
X15298
X15388
X15478
X15568
X15658
X15748Y202
X15838
X15928
X16018
X16108
X16198
X16288
X16378
X16468
X16558
X16648
X16738
X16828
X16918
X17008
X17098Y196
X17179Y158
X17250Y102
X17340Y102
X17430Y102
X17520Y102
X17610Y102
X17698Y119
X17778Y160
X17841Y224
X17882Y304
X17898Y393
X17898Y483
Y573
X17898Y663
Y753
Y843
X17676Y877
X17675Y800
X17524Y877
X17371
X17425Y800
X17175
X17219Y877
X17067
X16800Y550
X16380Y457
X16408Y364
X16175Y800
X15925
X15882Y862
Y729
X15701
X15675Y800
X15701Y862
X15545Y831
X15332Y830
X15300Y550
X15036Y726
X14958Y866
X14915Y490
X17175Y300
X14758Y202
X14668
X14578
X14488
X14398
X14308Y202
X14218
X14128
X14038
X13948
X13858
X13768
X13678
X13588
X13498
X13408
X13318
X13228
X13138
X13048
X12958Y202
X12868
X12778
X12688
X12598
X12508
X12418
X12328
X12238
X12148
X12058
X11968
X11878
X11788
X11698
X11608Y202
X11518
X11428
X11338
X11248
X11158
X11068
X10978
X10888
X10974Y672
X11444Y611
X11592Y690
X11741Y540
X11983Y487
X12041Y540
X12106Y490
X12342Y540
X12524Y607
X12608Y686
X12609Y754
X12565Y853
X12925Y800
X13175
X13398Y900
X13449Y487
X13571Y490
X13825Y488
X14057Y905
X14675Y800
X11959Y850
X11379Y911
X10798Y202
X10708
X10618
X10528
X10438
X10348
X10258Y202
X10168
X10078
X9988
X9898
X9808
X9718
X9628
X9538
X9448
X9358
X9268
X9178
X9088
X8998
X8908Y202
X8818
X8728
X8638
X8548
X8458
X8368
X8278
X8188
X8098
X8008
X7918
X7828
X7738
X7648Y202
X7558
X7468
X7378
X7288
X7198
X7108
X7018
X6928
X7569Y566
X7725Y644
X7784Y644
X7843
X7713Y731
X7717Y837
X7311Y835
X8050Y550
X8631Y635
X8635Y699
X8800Y550
X9117Y741
X9175Y800
X9464Y604
X9767Y675
X9678Y903
X10064Y604
X10364
X10465Y533
X10213Y348
X8379Y906
X6718Y883
X6345Y885
X6323Y644
X6256Y641
X6186
X5968Y882
X5602Y876
X5394Y740
X5105Y569
X4932Y628
X4772Y730
X4517Y569
X4498Y202
X4588
X4678
X4768
X4858
X4948
X5038Y202
X5128
X5218
X5308
X5398
X5488
X5578
X5668
X5758
X5848
X5938
X6028
X6118
X6208
X6298
X6388Y202
X6478
X6568
X6658
X6748
X6838
X4408Y202
X4318
X4228
X4138
X4048
X3958
X3868
X3778
X3688
X3598Y202
X3508
X3418
X3328
X3238
X3148
X3058
X2968
X3421Y631
X3628Y730
X4210Y693
X2878Y202
X2788
X2698
X2608
X2518
X2428
X2338
X2248Y202
X2158
X2068
X1978
X1888
X1798
X1708
X1618
X1528
X1438
X1348
X1258
X1168
X1078
X988
X898Y196
X817Y157
X746Y102
X656Y102
X566Y102
X476Y102
X386Y102
X298Y119
X218Y161
X156Y226
X116Y307
X102Y396
X102Y486
Y576
Y666
Y756
Y846
X1111Y816
X1212
X1161Y755
X1060
X1111Y695
X1212
X1263Y755
X1300Y550
X1550
X1050
X1341Y1108
X1534Y1153
X1632Y1133
Y1083
Y1032
Y981
X1711Y1229
X1703Y1336
X1870Y1334
X1827Y1462
X2070Y1460
X2045Y1334
X2069Y1708
X1829Y1707
X1850Y1827
X1921Y1828
X1886Y1881
X1956Y1882
X2184
X2255Y1881
X2220Y1828
X2290Y1827
X2265Y2234
X2135
X2005
X1875
Y2364
X2005
X2135
X2265
X2601Y2344
X2675Y2300
X2601Y2185
Y2029
X2836Y2263
X2844Y2591
X2794
X2744
X2762Y2957
X2819
X2879
X2704
X2711Y3177
X2641Y3128
X2834Y3232
X2740Y3327
X2654Y3428
X2702Y3640
X2759
X2817
X2877
X2844Y3999
X2794
X2744
X2762Y4125
X2839Y4201
X2675Y4300
X2688Y4413
X2781Y4548
X2675Y4800
X2363Y4887
X2189
X2135Y4331
X2005
X1875
Y4201
X2005
X2135
X2265
Y4331
X2134Y3996
X2070Y3875
X2070Y3813
Y3752
X1976Y3734
X2165
X2326Y3670
Y3588
Y3376
Y3293
X2298Y3001
X2197Y2943
X2367Y2885
X1800Y2550
X1708Y2441
Y2364
X1707Y2288
Y2205
Y2128
X1706Y2052
X1800Y2050
X1585Y2093
X1353Y2048
X1204Y1876
X1092
X981
X1040Y1708
X800Y1707
X798Y1462
X1038Y1463
X1534Y1338
X1997Y943
X2109
X2220
X2403Y950
X2370Y1108
X2559Y1153
X2699Y1147
X603Y1158
Y1108
Y1057
Y1006
X102Y1026
Y936
Y1116
Y1206
Y1296
Y1386
Y1476
Y1566
Y1656
Y1746
Y1836
Y1926
Y2016
Y2106
Y2196
Y2286
Y2376
Y2466
Y2556
Y2646
Y2736
Y2826
Y2916
Y3006
Y3096
Y3186
Y3276
Y3366
Y3456
Y3546
Y3636
Y3726
Y3816
Y3906
Y3996
Y4086
Y4176
Y4266
Y4356
Y4446
Y4536
Y4626
Y4716
Y4806
X618Y4801
Y4852
X657Y4638
X733Y4637
X810
X901Y4638
X977Y4637
X1055
X1136Y4638
X1212Y4637
X1290
X1372
X1448Y4635
X1526
X1571Y4878
X1212Y4755
X1101
X990
X1052Y4527
X813Y4527
X811Y4282
X854Y4154
X693Y4156
X686Y4051
X613Y3952
Y3902
Y3851
Y3800
X245Y3800
Y3851
Y3902
Y3953
Y3187
X684Y3227
X854
X811Y3355
X1054Y3353
X1025Y3239
X1052Y3600
X1139Y3687
X1215Y3686
X1293
X1375
X1451Y3685
X1616Y3650
X1699Y3649
X1774Y3645
X1738Y3597
X1659Y3597
X1204Y3755
X1093
X981
X813Y3600
X1026Y4163
X1054Y4280
X1304Y3996
X1353Y3928
X1742Y4196
X1743Y4273
Y4350
X1800Y4550
X1585Y3045
X1353Y3000
X1378Y2749
X1455Y2748
X1532
X1550Y2550
X1296Y2749
X1219
X1143Y2751
X1093Y2828
X1204
X1052Y2648
X813Y2647
X811Y2402
X853Y2274
X701Y2270
X701Y2220
X614Y2097
Y2047
Y1996
Y1945
X1028Y2273
X1054Y2400
X603Y2874
Y2925
Y2975
Y3026
X2937Y3177
X2902Y3278
X2937Y3327
X2912Y3390
X2911Y3520
X3062Y3696
Y3743
Y3788
X3154Y3668
X3199
Y3623
X3279Y3626
Y3688
Y3751
Y3813
Y4001
X3331
X3381
X3300Y4050
X3226Y4001
X3176
X3224Y4125
X3147Y4201
X3175Y4300
X3405Y4313
X3501Y4185
X3625Y4340
X3637Y4521
X3550Y4550
X3713Y4604
X3800Y4550
X3853Y4766
X3962Y4772
X3425Y4800
X3330Y4818
X3175Y4800
X3100Y4818
X2925Y4800
X3233Y4600
X3070Y4125
X2993Y4201
X2916Y4125
X2896Y3999
X2949
X2999
X3359Y3668
X3401
X3359Y3623
X3496Y3696
Y3743
Y3788
X3674Y3643
X3734
X3791
X3849
X3879Y3549
X3826Y3495
Y3414
Y3315
X3969Y3309
Y3247
X3968Y3371
Y3433
X4197Y3516
X4159Y3565
Y3615
X4199Y3657
X4442Y3650
X4446Y3382
Y3298
X4362
X4277
Y3382
X4362
X4639Y3326
X4616Y3524
X4804Y3499
X4788Y3566
X4898Y3428
Y3338
Y3238
Y3148
X4958Y3194
X4854Y3075
X4759Y3009
X4601Y2909
X4631Y2778
Y2725
X4630Y2672
X4623Y2573
X4570Y2573
X4503Y2573
X4444Y2391
X4356
X4296Y2425
X4243Y2463
X4189Y2573
X4117Y2573
Y2854
X4189
X4207Y2928
X4159Y2974
Y3024
X3971Y3040
X3851Y2959
X3794
X3736
X3676
X3496Y2907
Y2862
Y2814
X3404Y2934
X3356
Y2980
X3279Y2977
Y2915
Y2852
Y2790
Y2602
X3227
X3177
X3332
X3382
X3300Y2550
X2999Y2591
X2949
X2896
X3062Y2814
Y2862
Y2907
X3154Y2934
X3202
Y2980
X3159Y3182
Y3302
Y3422
X3279
X3399
Y3302
X3279Y3302
X3279Y3182
X3399
X3612Y3161
X3631Y3277
X3609Y3538
X3826Y3157
X4452Y2854
X4952Y2755
X4981Y2721
X4980Y2534
X5173Y2403
X5141Y2319
X5084Y2296
X5047Y2078
X5127
X5300Y2050
X5359Y2050
Y1911
X5425Y1800
X5519Y1772
X5550Y1550
X5728Y1519
X6050Y1550
X6101Y1519
X6300Y1550
X6427Y1572
X6477Y1506
X6848
X6238Y1778
X6195Y1740
X6189Y1842
X6021
X6085Y1958
X6050Y2050
X5972Y2073
X5795
X5878Y2174
X5925Y2300
X5795Y2273
X5725Y2324
X5693Y2356
Y2174
X5423Y2245
X5359Y2189
X4877Y2083
X4818Y1827
X4729Y1826
X4607Y1827
X4525Y1869
X4516Y2084
X4343Y2264
X4131Y2262
X3692Y2263
X3493Y2261
X3330Y2044
X3525Y1801
X3591Y1687
X3592Y1600
X3741Y1802
X3872Y1802
X4173Y1801
X4299
X4675Y1334
X5018Y985
X5125Y973
X5394Y1076
X5800Y1050
X5321Y1574
X5906Y1958
X6270Y2034
X6383Y1940
X6433Y2364
X6384Y2480
X6427Y2542
X6338Y2583
X6257Y3013
X6027Y3251
X5941Y3286
X5898Y3232
X5861Y3174
X5779Y3173
X5784Y3232
X5792Y3286
X5689Y3323
X5557Y3319
X5629Y3054
X5685Y3092
X5729Y2898
X5687Y2749
X5749Y2538
X5479Y2902
X5438Y2968
X5401Y3033
X5260Y2787
X5226Y3747
X5228Y4024
X4965Y4064
X4902Y4063
X4857
X4807Y4063
X4775Y4146
Y4191
X4802Y4348
X4858Y4376
X4890Y4408
X4716Y4456
X4753Y4650
X4801Y4824
X5093Y4848
X5119Y4794
X5109Y4574
X5084Y4523
X5043Y4588
X5076Y4306
X5545Y4347
X5658Y4251
X5785Y4254
X5824Y4307
X5874Y4316
X5878Y4217
X5878Y4155
X5944Y4154
Y4219
X6009
X6074
X6072Y4280
X6001Y4316
X6139Y4348
X6204Y4349
X6206Y4412
X6141Y4414
X6051Y4441
X6004Y4576
X5874
X5826
X5811Y4652
X5883Y4668
X5944Y4674
X5944Y4736
X5942Y4806
X5944Y4869
X6009
X6074Y4804
X6139Y4869
Y4739
Y4674
Y4609
X6204
X6261Y4615
X6334Y4613
X6336Y4478
X6399Y4479
Y4414
X6464Y4349
Y4284
X6529Y4284
Y4349
Y4414
X6593Y4476
X6664Y4446
X6664Y4284
X6659Y4219
X6721Y4218
X6724Y4156
X6788Y4148
X6854Y4154
Y4089
Y4024
X6789Y4024
Y3959
X6727Y3960
X6725Y4020
X6653Y4033
X6659Y4089
X6534Y4089
X6529Y4154
X6594Y4154
X6594Y4219
X6531Y4221
X6331Y4218
X6334Y4283
X6334Y4349
X6266Y4479
X6204Y4477
X6204Y4219
X6139
X6141Y4151
X6139Y4024
X6009
Y4089
X6074
X5944
Y4024
X6009Y3959
X5976Y3889
X5879Y3894
X5814Y3959
X5799Y4059
X5818Y4143
X5678Y4056
X5673Y3820
X5748Y3829
X5976Y3759
X6171
X6169Y3889
X6075Y3896
X6238Y3959
X6239Y4083
X6366Y4132
X6461Y4086
X6426Y4024
X6464Y3959
X6464Y3894
X6559Y3844
X6561Y3714
X6756Y3724
X6756Y3855
X6724Y3894
X6853Y3894
X6854Y3959
X6655Y3960
X6596Y3956
X6366Y3759
X6125Y3644
X6086Y3533
X6232Y3504
X6402Y4542
X6527Y4540
X6528Y4611
X6528Y4673
X6592Y4675
X6591Y4740
X6594Y4804
X6592Y4865
X6656Y4870
X6726Y4871
X6789Y4869
Y4739
X6726Y4741
X6659Y4739
X6661Y4671
X6725Y4671
X6788Y4672
X6854Y4674
X6726Y4575
X6596Y4609
X6497Y4820
X6366Y4744
X6236Y4809
X5809Y4836
X5819Y4739
X5680Y4652
X5670Y4836
X5619Y4836
X5566Y4801
X5679Y4446
X5809
X6729Y4316
X6859
X6786Y4221
X4914Y3902
X4914Y3843
Y3790
X4759Y3791
X4631Y3813
Y3874
Y3933
X4623Y4018
X4563
X4503
X4213Y4059
X3967Y4086
X3777Y4092
X3797Y4267
X3047Y2263
X2925Y1800
X3045Y1003
X3256Y986
X3402Y1144
X3628Y1092
X3579Y967
X3723Y1199
X6952Y1106
Y960
X7050Y1050
X7311Y992
X7676
X7800Y1050
X8031Y992
X8379Y992
X8566Y1092
X8568Y1202
X8566Y1324
X8652Y1500
X8642Y1742
X8539Y1703
X8711Y1846
X8785Y1911
X8817Y2017
Y2106
X8769Y2237
Y2367
X8775Y2473
X8793Y2562
X9041Y2558
X9090Y2169
X9418Y2218
X9347Y1846
X9658Y1844
X9953Y1827
X9908Y1773
X10073Y1687
X10080Y1570
X10044Y1503
X10268Y1678
X10789Y1699
X10708Y1929
X10655Y1978
X10590Y2015
X10607Y2137
X10708Y2138
X10756Y2357
X10819Y2298
X10552Y2298
X10485Y2298
X10419
X10419Y2232
X10285Y2263
X10122Y2267
Y2312
Y2222
Y2177
X10043Y2138
X9998Y2089
X9958Y1977
X9964Y2545
X9868Y2542
X9782Y2540
X9700Y2542
Y2612
X9699Y2667
X9635Y2662
X9825Y2609
X9924Y2614
X10260Y2855
X10325
X10487Y2862
X10685Y2920
X10725Y3245
X10643Y3376
X10600Y3564
X10604Y3901
X10577Y4036
X10730Y3974
X10797Y3724
X10425Y3800
X10225Y3597
X10316Y3282
X10277Y3218
X10322Y3140
X10261Y3042
X10489Y3240
X10475Y2555
X9595Y2875
X9556Y2936
X9593Y3046
Y3126
X9712Y3062
X9664Y2997
X9713Y3269
X9711Y3329
X9712Y3454
X9717Y3533
X9604Y3557
X9573Y3692
X9713Y3720
X9577Y3905
X9552Y4114
X9444Y4041
X9436Y4212
X9322Y4353
X9258Y4479
X9172Y4467
X9055Y4371
Y4315
Y4260
Y4204
X9112Y3824
X9191Y3823
X9257Y3688
X9402Y3738
X9213Y3454
X9211Y3396
X9104Y3213
X9146Y3165
X9187Y3105
X9299Y3078
X9345Y3020
X9388Y3061
X9429Y3102
X9433Y3207
X9434Y3279
X9591Y3396
X9782Y3208
X9017Y3149
X9024Y3279
X8911Y3280
X8792Y3429
X8716Y3203
X8792Y3093
X8246Y3126
Y3206
X8221Y3246
X8246Y3286
Y3344
Y3404
X8146Y3166
X8146Y3086
X8066Y3086
X8066Y3006
X8146Y3006
X8146Y2926
X8066
X7986
X7986Y2846
Y2766
X8066
X8066Y2846
X8146Y2766
X8246Y2846
Y2966
Y3046
Y2646
Y2566
Y2486
Y2406
X8146Y2366
X8066Y2366
X8066Y2446
X7986Y2526
X8066Y2606
X7586Y2606
X7486Y2566
Y2646
Y2486
Y2406
Y2326
Y2246
Y2166
Y2086
X7586Y2206
Y2286
Y2446
Y2766
X7666Y2766
X7746Y2766
Y2846
X7666Y2846
X7666Y2926
X7664Y3004
X7586Y3004
X7586Y2926
X7586Y3086
X7666Y3086
X7666Y3166
X7586
X7586Y3246
X7666Y3246
Y3326
X7486Y3286
Y3206
Y3126
Y3046
X7137Y3242
Y3424
X6987Y3712
X6984Y3764
Y3829
X6982Y3894
X6977Y3964
X6916Y3961
X6919Y4089
X6970Y4065
X7101Y4056
X7086Y4254
X6951
X6906Y4316
X6924Y4446
X7054
X7055Y4653
X6924Y4641
X6876Y4576
X6924Y4836
X7054
X7290Y4781
X7278Y4733
X7274Y4587
X7513Y4505
X7603Y4511
X7600Y4591
X7640Y4671
X7519Y4811
X7469Y4819
X8139Y4815
X8228Y4737
X8204Y4617
X8349Y4658
X8624Y4554
X8877Y4514
X8953Y4554
X9029Y4658
X8901Y4777
X9349Y4772
X9423Y4695
X9497Y4627
X9404Y4478
X9765Y4627
X9894Y4301
X9726Y4153
X10225Y4144
X10401Y4181
X10521Y4346
X10485Y4397
X10225Y4397
Y4597
X10375Y4702
X10475Y4702
X10625Y4702
X10680Y4700
X10757Y4436
X10810Y4486
X8952Y3849
X7128Y3856
X7052Y3851
X7746Y2126
X8106Y2026
X8186
X8246Y2166
Y2246
X8405
Y2342
X8393Y1506
X8329Y1495
X8268Y1289
X8271Y1191
X7916Y1290
X7912Y1526
X8039Y1506
X7807Y1455
X7681Y1506
X7328
X7425Y1300
X8908Y1650
X9000
X8958Y1702
X9132Y1500
X9222Y1435
X9425Y1300
X9550Y1550
X9300Y1050
X9859Y972
X10044Y1039
X10719Y1036
X10800Y1050
X10746Y1344
X10604Y1344
X11050Y1550
X11158Y1506
X11290Y1530
X11242Y1653
X11082Y1724
X11467Y1771
X11589Y1668
X11583Y1594
X11659Y1592
X11824Y1709
X11886
X11950Y1708
X11841Y1766
X11812Y2046
X11867Y2115
X11700Y2125
X11621Y2155
X11570Y2173
X11513Y2153
X11420Y2155
X11354
Y2260
X11469Y2260
X11221
X11220Y2168
X11091Y2231
X11087Y2296
X11020
X10952Y2292
X10884Y2298
X11253Y2515
X11425Y2555
X11592Y2865
X11703Y2875
X11729Y3101
X11834Y3142
X11846Y3203
X11834Y3332
X11912Y3452
X11955Y3517
X12022Y3571
X12075Y3447
X12022Y3373
X12031Y3246
X11936Y3016
X12039Y2903
X12147Y2565
X12147Y2474
X12243Y2565
X12300Y2550
X12550
X12800
X12782Y2305
X12675Y2300
X12601Y2306
X12397Y2306
X12400Y2052
X12333Y2071
X12270Y2027
X12179Y1979
X12091Y1926
X12042Y2054
X12140Y2167
X12243
X12065Y2255
X11956Y2312
X11888Y2341
X11613Y2044
X11467Y1316
X11424Y1210
X11518Y1210
X11596Y1048
X11772Y1106
X11318Y1118
X12192Y1429
X12198Y1661
X12288
Y1756
X12390Y1852
X12486Y1820
X12510Y1742
X12588Y1709
X12668
X12749
X12830
X12910
X12866Y1772
X12749Y1834
X12747Y2046
X12961Y2304
X13246Y2476
X13300Y2550
X13550
X13652Y2741
X13741Y2861
X13925Y2800
X14050Y3050
X13800
X13550
X13300
X13159Y3038
X13252Y2907
X13425Y2800
Y3300
X13259Y3505
X13202Y3635
Y3707
X13105Y3929
X13049Y3893
Y4029
X13105Y4069
X13324
X13322Y3973
X13328Y4239
X13331Y4293
X13425Y4300
X13925
X14175
X14425
X14675
X14550Y4550
X14300
X14050
X13696Y4623
X13614Y4689
X13517Y4873
X13331Y4763
X13050Y4550
X12747Y4423
X12580Y4363
X12566Y4496
Y4564
X12580Y4165
Y4098
X12708Y4027
X12744Y3971
X12710Y3857
X12625Y3836
Y3571
X12624Y3436
X12624Y3373
Y3308
X12625Y3242
Y3176
X12625Y3110
X12625Y2977
X12625Y2850
X12718Y2852
X12395Y3174
X11490Y3060
X11318Y2958
X11250Y3017
X11039Y2864
X10947Y2867
X10870Y2873
X10873Y3187
X10874Y3508
X10994
X11147Y3515
X11181Y3685
X11401Y3722
X11432Y3636
X11682Y3678
X11869Y3677
X11918Y3728
X11971Y3786
X12074Y3998
Y4098
X11988Y4107
X12075Y4293
X12070Y4370
X12046Y4559
X11974Y4496
X11875Y4702
X11745Y4702
X11635Y4702
X11532Y4535
X11512Y4399
X11354Y4417
X11398Y4471
X11149Y4352
X10941Y4436
X10838Y4361
X10874Y4703
X10961Y4036
X11536Y3881
X11755Y3919
Y4036
X11792Y4231
X11782Y4302
X11675Y4300
X12664Y4230
X12262Y4845
X13800Y4050
X14050
X14300
X14550
X14675Y3800
X14425
X14175
X13925
X13857Y3692
X14300Y3550
X14550
X14675Y3300
X14425
Y2300
X14175
X14267Y2091
X14319Y2027
X14383Y2073
X14228Y1979
X14140Y1926
X14337Y1756
Y1661
X14247
X14242Y1427
X13959Y1438
X13854Y1441
X13773
X13693
X13612
X13471Y1472
X13441Y1531
X13312Y1661
X13222
X13312Y1756
X13493Y1786
X13534Y1742
X13612Y1709
X13693
X13773
X13854
X13935
X13890Y1774
X13767Y1816
X13800Y1550
X13810Y1049
X13627Y1032
X13972Y1088
X13983Y1166
X14420Y1232
X14472Y1041
X14653Y1022
X14799Y1512
X14798Y1709
X14717
X14636
X14558Y1742
X14531Y1883
X14457Y1868
X14797Y1862
Y1914
X14473Y1496
X13218Y1474
X13039Y1438
X12850Y1451
X12776Y1451
X12668Y1441
X12588
X12447Y1476
X12715Y1236
X12727Y1166
X12686Y1110
X12727Y1055
X12932Y1175
X13037Y1036
X13129Y1037
X13142Y1926
X13215Y1979
X13205Y2073
X13294Y2027
X13358Y2073
X13433Y1865
X13425Y2300
X13675
X14925
X15425
X15407Y2073
X15325Y2008
X15252Y1979
X15236Y2079
X15164Y1926
X15361Y1756
Y1661
X15271
X15266Y1427
X15119Y1509
X14975Y1388
X14959Y1709
X14879
X14915Y1774
X15471Y1862
X15553Y1831
X15583Y1742
X15640Y1709
X15703
X15766
Y1441
X15703
X15640
X15495Y1478
X15431Y1166
X15420Y1088
X15202Y1047
X15701Y1002
X15938Y1035
X15850Y1225
X16231Y1441
X16418Y1371
X16536Y1224
X16536Y1152
X16649Y1035
X16421Y1027
X17190Y1049
X17313Y1003
X17466
X17550Y1050
X17524Y1113
X17676
X17618Y1003
X17800Y1050
X17898Y1023
Y933
X17898Y1113
Y1203
Y1293
X17898Y1383
Y1473
X17898Y1563
Y1653
Y1743
X17898Y1833
Y1923
X17898Y2013
Y2103
Y2193
X17898Y2283
Y2373
X17898Y2463
Y2553
Y2643
X17898Y2733
Y2823
X17898Y2913
Y3003
Y3093
X17898Y3183
Y3273
X17898Y3363
Y3453
Y3543
X17898Y3633
Y3723
X17898Y3813
Y3903
Y3993
X17898Y4083
Y4173
X17898Y4263
Y4353
Y4443
X17898Y4533
Y4623
X17898Y4713
Y4803
Y4893
X17675Y2800
X17425
X17175
X16925
X17018Y2701
Y2405
X16925Y2300
X16675
X16425
X16175
X16300Y2550
X16425Y2800
X16675
X16800Y2550
X17300
X17800
X17675Y2300
X17800Y2050
X17675Y1800
X17800Y1550
X17550
X17300
X17190Y1399
X17425Y1300
X17371Y1113
X17675Y1300
X17175Y1800
X16925
X16675
X16800Y2050
X17050
X16300
X15641Y2063
X15675Y2300
X15550Y2550
X15300
X15425Y2800
X15675
X15550Y3050
X15300
X15050
X14800
X14925Y3300
X15175
X15425
X15675
X15550Y3550
X15300
X15050
X14800
X14925Y3800
X15175
X15425
X15675
X15550Y4050
X15300
X15050
X14800
X14925Y4300
X15175
X15425
X15675
X15550Y4550
X15300
X15088Y4542
X14800Y4550
X14925Y2800
X15175
X16175
X16842Y1473
X17898Y4983
Y5073
X17898Y5163
Y5253
Y5343
X17898Y5433
Y5523
X17898Y5613
Y5703
Y5793
X17898Y5883
Y5973
X17898Y6063
Y6153
Y6243
X17898Y6333
Y6423
X17898Y6513
Y6603
Y6693
X17898Y6783
Y6873
X17898Y6963
Y7053
Y7143
X17898Y7233
Y7323
X17898Y7413
Y7503
Y7593
X17887Y7682
X17849Y7764
X17789Y7831
X17711Y7877
X17602Y7899
X17512Y7898
X17422Y7898
X17332Y7898
X17242Y7898
X17176Y7837
X17093Y7802
X17003Y7798
X16913
X16823
X16733
X16643
X16553
X16463
X16373
X16283
X16193
X16103
X16013
X15923
X15833
X15743Y7798
X15653
X15563
X15473
X15383
X15293
X15203
X15113
X15023
X14933
X14843
X14920Y7346
X15164Y7247
X15675Y7555
X15825
X15993
X16150
X16294
X16536Y7455
X16796Y7346
X17079Y7213
X17425Y7300
X17800Y7050
X17476Y6478
X17248Y6523
X16788Y6472
X16720Y6528
X16377Y6523
X16136Y6735
X15612Y6652
X15596Y6360
X15765Y6493
X15338Y6486
X15236Y6493
X15428Y6014
X15203Y5753
X15077Y5547
X15010Y5407
X15568Y5405
X15641Y5291
X15643Y5213
X15575Y5150
X15483
X15550Y5050
X15889Y5805
X16281Y5696
Y5925
X16181Y6026
X17468Y6024
Y5845
X14710Y5827
Y5922
X14595Y6000
X14300Y6050
X14442Y6231
X14520Y6440
X14613Y6528
X14752Y6479
X14239Y6478
X13952Y6347
X13703Y6461
X13650Y6519
X13479Y6635
X13339Y6682
X13167Y6735
X12975Y6775
X12837Y6825
X12659Y6491
X12550Y6550
X12547Y6238
X12878Y6339
X13210Y6491
X13509Y6245
X13658Y5919
Y5824
X13297Y5753
X13300Y5550
X13106Y5563
X13003Y5461
X13152Y5349
X13175Y5300
X13268Y5234
X13492Y5044
X13550Y5050
X13954Y5460
X14050Y5550
X14123Y5591
X14250Y5753
X14175Y5300
X14425
X14650Y5529
X14012Y6881
X13462Y7026
X13394Y6978
X13323Y7196
X13175Y7300
X12925
X12493Y7321
X12341Y7317
X12175Y7300
X11675
X11693Y7798
X11603
X11513
X11423
X11333
X11243
X11153
X11063
X10973
X10883
X10961Y7520
X11112Y7519
X11783Y7798
X11873
X11963
X12053
X12143
X12233
X12323
X12413
X12503
X12593
X12683
X12773
X12863
X12953
X13043
X13133Y7798
X13223
X13313
X13403
X13493
X13583
X13673
X13763
X13853
X13943
X14033
X14123
X14213
X14303
X14393
X14483Y7798
X14573
X14663
X14753
X14527Y7439
X14275Y7526
X14100
X13945Y7528
X13803
X13664
X12132Y6491
X11606Y6489
X11079Y6491
X11119Y5805
X11016
X11207Y5586
X11087Y5433
X11027Y5397
X11086Y5335
X10989Y5296
X10925Y5351
X10915Y5218
X10849Y5216
X11041Y5219
X11109Y5217
X11175Y5219
X11305Y5218
X11366Y5219
X11434Y5217
X11502Y5215
X11437Y5035
X11368
X11305
X11239
X11175
X11124Y5035
X11025Y5037
X10977
X10925Y5035
X11241Y5345
X11775
X11760Y5216
X11890Y5216
X11832Y5035
X11628Y5033
X12029Y5083
X12056Y5595
X11967Y5599
X12320Y5573
X12439Y5566
X12215Y5457
X12675Y5300
X12651Y5112
X12746Y5022
X12840Y4920
X10775Y5035
X10691Y5215
X10588Y5217
X10520Y5219
X10459Y5217
X10394
X10336Y5210
X10336Y5264
X10272Y5259
X10245Y5337
X10257Y5425
X10195Y5469
X10128Y5424
X10066Y5469
X10004Y5562
X10084Y5306
X10160Y5301
X10195Y5144
X9802Y5177
X9692Y5649
X9593Y6033
X9487Y6478
X9800Y6550
X9675Y6800
X9175
X9150Y7131
X9025
X8902Y7152
X9285Y7129
X9300Y7550
X9400Y7568
Y7618
X9443Y7798
X9353
X9263
X9173
X9083
X8993Y7798
X8903
X8813
X8723
X8633
X8543
X8453
X8363
X8273
X8183
X8093
X8003
X7913
X7823
X7733
X7643Y7798
X7553
X7463
X7373
X7283
X7193
X7103
X7013
X6923
X7080Y7487
X7148Y7528
X7214Y7568
X7197Y6961
X7317
X7567Y7069
X7793
X8005Y6918
X7942Y6825
X7976Y6722
X8068Y6730
X8455Y6529
X8526Y6444
Y6330
X8745Y6142
X8866
X8973
X9033Y5933
X8917Y5735
X8644
Y5632
Y5529
Y5411
X8684Y5084
X8974Y5186
X9031Y5248
X9083Y5321
X9236Y5210
X9230Y5449
X9083Y5603
X8175Y5800
X8148Y5966
X8039
X7941
X7841
X7737Y5963
X7869Y5845
X7914Y5775
X7957Y5725
X7998Y5677
X7800Y5550
X7508Y5594
X7470Y5436
X7470Y5371
X7530Y5271
X7639Y5314
X7599Y5181
X7508Y5120
X7508Y5056
X7633Y4918
X7956Y5104
X8053Y5101
X8050Y5050
X8170Y4933
X8164Y5192
X7954Y5234
X7269Y5297
X7061Y5397
X7016
X7018Y5215
X6988Y5129
X6984Y5064
X7071Y5081
X7122Y5116
X7101Y4966
X7015Y5594
X6998Y5695
X6924Y5647
X6874Y5535
X7117Y6203
X7271Y6305
Y6366
Y6411
Y6465
X7362Y6444
Y6497
Y6542
X7144Y6480
X7143Y6435
X7455Y6255
X7518Y6286
X7575Y6255
X7620Y6286
X7675Y6300
X7750Y6204
X8257Y6035
X8790Y6802
X8696Y6902
X8650Y7444
X8775
X8525
X8400
X9533Y7798
X9623
X9713
X9803
X9893
X9983
X10073
X10163
X10253
X10343
X10433Y7798
X10523
X10613
X10703
X10793
X10811Y7520
X10661Y7519
X10510Y7398
X10362Y7448
X10050Y7550
X9800
X9837Y7365
X9931Y7366
X10285Y6647
X10580Y6491
X10792Y6024
X10715Y5466
X10647Y5425
X10585Y5469
X10517Y5425
X10455Y5469
X10387Y5425
X10325Y5469
X9997Y6190
X6879Y6827
X6942Y6936
X6813Y6942
X6840Y7039
X6692Y6936
X6630Y6825
X6531Y6969
X6405Y6972
X6282Y6972
X5794Y6968
X5831Y6926
X5710Y6921
X5585Y6925
X5626Y6968
X5668Y7012
X5752
X5779Y7590
X5652Y7594
X5653Y7536
X5550Y7550
X5573Y7798
X5483
X5393
X5303
X5213
X5123
X5033
X4943Y7798
X4853
X4763
X4673
X4583
X4493
X4403
X4313
X4223
X4133
X4043
X3953
X3863
X3773
X3683
X3593Y7798
X3503
X3413
X3323
X3233
X3143
X3053
X2963
X3110Y7050
X3272Y6813
X3368Y6874
X3513Y6822
X3607Y6954
X3550Y7050
X3608Y6619
X3550Y6550
X3800
X4050
X4300
X4220Y6767
X3998Y6766
X4425Y6800
X4427Y6874
X4620Y7050
X4782Y6813
X4877Y6874
X5023Y6822
X5116Y6954
X5122Y6694
X5383Y6627
X5507Y6160
X5610
X5559Y6108
X5610Y6051
X5507
X5270Y6083
X5121Y6136
X5022Y6174
X5000Y6043
X5082Y6033
X4834Y6066
X4730Y6088
X4736Y5974
Y5854
Y5735
X4796Y5791
X4918Y5851
X4736Y5616
Y5496
Y5377
Y5257
Y5138
Y5019
Y4899
X4871Y5198
X4960Y5321
X4918Y5376
X4980Y5469
X5079Y5468
X5119Y5144
X5471Y5199
X5606Y5201
X5653Y5237
X5709Y5274
X5756Y5313
X5814Y5346
X5861Y5521
X5934Y5557
X6011Y5635
X6265Y5637
X6306Y5739
X6429Y5778
X6471Y5898
X6717Y5898
X6749Y5930
X6726Y5791
X6663Y5739
X6597Y5691
X6504Y5498
X6378Y5495
X6452Y5249
X6366Y5134
Y5004
X6236Y4984
X6171Y5004
X6197Y4930
X6074Y4929
X6009Y4931
X5976Y5004
X5879Y4999
X5814
Y4934
X5749Y5064
X5684
X5584Y5049
X5976Y5134
X6198Y5160
X6561Y5134
Y5004
X6659Y5004
X6659Y5064
X6754Y5006
X6727Y4932
X6791Y4936
X6759Y5148
X6496Y4944
X6500Y6182
X6852Y6154
X5969Y6185
X5971Y6096
X6008Y6033
X5770Y5983
X5778Y6261
X5333Y5920
X4299Y6247
X3919Y6246
X3675Y6300
X3625Y5992
X3505
X3386
X3271
X3156
X3148Y5779
Y5681
Y5581
Y5481
X3246Y5483
X3336Y5469
X3446Y5483
X3448Y5571
X3536Y5569
X3534Y5481
X3643Y5683
X3740Y5670
X3836Y5669
X4063Y5728
X4058Y5829
X3743Y5871
X3348Y5871
Y5771
X3246Y5777
X3246Y5683
X3336Y5669
X3041Y5671
X2913Y5735
X2925Y5800
X2918Y5532
X2925Y5300
X3148Y5281
X3246Y5283
Y5183
X3148Y5181
Y5081
X3050Y5050
X2990Y4948
X3348Y4974
X3325Y5097
X3336Y5169
X3348Y5271
X3648
X3746Y5359
X3836Y5369
X3800Y5050
X3734Y5081
X3550Y5050
X3509Y4974
X4063Y5128
Y5228
X3148Y5381
X3175Y6300
X3161Y6515
X3050Y6550
X3300
X3180Y6694
X2925Y6800
X4690Y6694
X5663Y7798
X5753
X5843
X5933
X6023
X6113
X6203
X6293
X6383Y7798
X6473
X6563
X6653
X6743
X6833
X6763Y7448
X6514Y7448
X6388
X6400Y7558
X6425Y7692
X6510Y7690
X6263Y7448
X6138
X2873Y7798
X2783
X2693
X2603
X2513
X2423
X2333
X2243Y7798
X2153
X2063
X1973
X1883
X1793
X1703
X1613
X1523
X1433
X1343
X1253
X1163
X1073
X983
X893Y7806
X814Y7848
X739Y7898
X649Y7898
X559Y7898
X469Y7898
X379Y7897
X291Y7878
X213Y7833
X153Y7766
X114Y7685
X102Y7596
Y7506
Y7416
Y7326
Y7236
Y7146
Y7056
Y6966
Y6876
Y6786
Y6696
Y6606
Y6516
Y6426
Y6336
Y6246
Y6156
Y6066
Y5976
Y5886
Y5796
Y5706
Y5616
Y5526
Y5436
Y5346
Y5256
Y5166
Y5076
Y4986
Y4896
X618Y4903
Y4953
X694Y5051
X696Y5152
X862Y5154
X820Y5282
X1062Y5280
X1034Y5166
X1061Y5527
X821Y5527
X623Y5633
Y5684
Y5735
Y5845
Y5896
Y5946
X718Y6094
X703Y6149
X864Y6147
X821Y6275
X1064Y6273
X1039Y6146
X1062Y6520
X823Y6520
X813Y6660
X762Y6716
X869Y6718
X922Y6657
X991Y6718
X1260
X1367
X1473Y6716
X1422Y6660
X1313Y6657
X1727Y6661
X1677Y6717
X1783Y6720
X1890
X1795Y6622
X1799Y6415
X1723
X1876
X1944Y6299
Y6188
Y6074
X1842Y5962
X1753Y5961
X1595Y5965
X1363Y5921
X1390Y5740
Y5689
Y5638
X1572Y5462
X1571Y5386
Y5309
X1572Y5031
X1571Y4955
X1362Y4928
X1313Y4996
X1925Y5300
X2319Y5393
Y5515
Y5638
X2128Y5715
X2186Y6075
X2188Y6188
Y6299
X2068Y6188
X1840Y5864
X1572Y6302
Y6379
X1574Y6455
X1565Y6951
Y7028
X1566Y7104
X1280Y7092
X1059Y7101
X1060Y7177
X1059Y7023
X300Y7050
X238Y6717
X203Y6461
X956Y5761
X1009Y5727
X1067Y5761
X2800Y5550
X2675Y5300
X2316Y4970
X2800Y6050
X2848Y6076
X2890Y6384
Y6460
X2438Y6661
X2489Y6717
X2382Y6720
X2276
X2329Y6659
X2175Y6800
X2070Y7023
Y7101
Y7162
T02
X17210Y4450
X17090Y4826
X16978Y5203
X16905Y5525
X16757Y5632
T03
X13754Y2474
X14008
X14262
X14516
X14770
X16002Y2356
Y2610
Y2864
Y3118
Y3372
Y3626
Y3880
Y4134
Y4388
Y4642
X17526
Y4388
Y4134
Y3880
Y3626
Y3372
Y3118
Y2864
Y2610
Y2356
Y2102
Y1848
X16002
Y2102
Y4896
Y5150
X17526
Y4896
X14770Y5221
X14516
X14262
X14008
X13754
T04
X17600Y400
X400
X17600Y7600
X400
M30
